<svg xmlns="http://www.w3.org/2000/svg" width="260" height="64" viewBox="0 0 260 64" fill="none"><g clip-path="url(#clip0_3588_10371)"><path d="M91.2195 19.9399C95.1241 19.9399 98.5671 20.9144 101.382 22.2929V28.839C99.0287 27.2329 95.0087 26.0244 91.7356 26.0244C89.9565 26.0244 87.8887 26.5437 87.8887 28.2075C87.8887 32.8013 103.449 30.506 103.449 40.6105C103.449 47.0989 97.5348 49.1089 90.9342 49.1089C86.7411 49.1089 82.782 48.1889 79.9674 46.5251V39.9213C82.9519 41.8736 87.1418 42.8513 90.4758 42.8513C93.4026 42.8513 95.2972 42.3352 95.2972 40.7836C95.2972 36.3629 79.7397 38.3152 79.7397 28.4415C79.7397 22.0653 85.4235 19.9431 91.2227 19.9431L91.2195 19.9399Z" fill="#1D1D1B"></path><path d="M106.251 48.3043V20.7445H113.313V23.9599C114.75 22.2384 117.907 19.9399 122.097 19.9399C126.287 19.9399 128.929 21.6614 130.538 24.0144C132.833 21.7736 135.933 19.9399 139.722 19.9399C147.474 19.9399 150 25.9667 150 30.849V48.3011H142.079V31.3619C142.079 28.4928 140.299 26.8258 137.773 26.8258C135.616 26.8258 133.686 28.06 132.365 29.5315C132.362 29.5379 132.378 48.3011 132.378 48.3011H124.453V31.3619C124.453 28.4928 122.674 26.8258 120.148 26.8258C117.622 26.8258 115.554 28.4351 114.234 30.1566V48.3011H106.254L106.251 48.3043Z" fill="#1D1D1B"></path><path d="M24.2002 50.9587V4.41126C24.2002 2.01337 26.1428 0.0674786 28.5407 0.0674786L20.1802 0.0578613C17.7887 0.0578613 15.6248 1.02279 14.0508 2.58399L2.54536 14.0958C0.971341 15.6666 0 17.8401 0 20.2412L0.00641149 60.1816C0.00641149 62.1083 1.56761 63.6694 3.49106 63.6694H9.69417C10.8931 63.6694 11.9799 63.1822 12.7653 62.3968L24.197 50.9619L24.2002 50.9587Z" fill="url(#paint0_linear_3588_10371)"></path><path d="M43.2903 31.8621L57.9854 46.5572C59.6812 48.253 59.6812 51.0068 57.9854 52.7026L49.5767 61.1241C48.0027 62.6917 45.8324 63.663 43.4377 63.663H9.69727C10.8962 63.6663 11.983 63.179 12.7684 62.3936L43.2903 31.8621Z" fill="url(#paint1_linear_3588_10371)"></path><path d="M63.6084 43.4861C63.6084 45.8872 62.6339 48.0607 61.0631 49.6347L57.9856 52.7026C59.6814 51.0068 59.6814 48.2531 57.9856 46.5572L24.197 12.7687V4.41129C24.197 2.01339 26.1429 0.0675049 28.5408 0.0675049H60.1238C62.0472 0.0675049 63.6084 1.6287 63.6084 3.55215V43.4861Z" fill="url(#paint2_linear_3588_10371)"></path></g><line x1="174.5" y1="19.8636" x2="174.5" y2="51.8636" stroke="#1D1D1B"></line><path d="M199.438 28.7727H201.835L206.003 38.9489H206.156L210.324 28.7727H212.721V41.8636H210.842V32.3906H210.72L206.859 41.8445H205.3L201.439 32.3842H201.317V41.8636H199.438V28.7727ZM219.671 42.0618C218.703 42.0618 217.87 41.8551 217.171 41.4418C216.477 41.0242 215.94 40.4382 215.561 39.684C215.186 38.9254 214.998 38.0369 214.998 37.0185C214.998 36.0128 215.186 35.1264 215.561 34.3594C215.94 33.5923 216.468 32.9936 217.146 32.5632C217.828 32.1328 218.624 31.9176 219.536 31.9176C220.09 31.9176 220.627 32.0092 221.147 32.1925C221.667 32.3757 222.134 32.6634 222.547 33.0554C222.96 33.4475 223.286 33.9567 223.525 34.5831C223.764 35.2053 223.883 35.9617 223.883 36.8523V37.5298H216.078V36.098H222.01C222.01 35.5952 221.908 35.1499 221.703 34.7621C221.499 34.37 221.211 34.0611 220.84 33.8352C220.474 33.6094 220.044 33.4965 219.549 33.4965C219.012 33.4965 218.544 33.6286 218.143 33.8928C217.747 34.1527 217.44 34.4936 217.222 34.9155C217.009 35.3331 216.903 35.7869 216.903 36.277V37.3956C216.903 38.0519 217.018 38.6101 217.248 39.0703C217.482 39.5306 217.808 39.8821 218.226 40.125C218.644 40.3636 219.132 40.483 219.69 40.483C220.052 40.483 220.382 40.4318 220.681 40.3296C220.979 40.223 221.237 40.0654 221.454 39.8565C221.671 39.6477 221.838 39.3899 221.953 39.0831L223.762 39.4091C223.617 39.9418 223.357 40.4084 222.982 40.809C222.611 41.2053 222.144 41.5142 221.582 41.7358C221.024 41.9531 220.387 42.0618 219.671 42.0618ZM218.673 30.7351L220.169 27.7884H222.183L220.201 30.7351H218.673ZM227.284 32.0455L229.45 35.8679L231.637 32.0455H233.727L230.665 36.9546L233.752 41.8636H231.662L229.45 38.1946L227.245 41.8636H225.149L228.204 36.9546L225.187 32.0455H227.284ZM235.689 41.8636V32.0455H237.6V41.8636H235.689ZM236.654 30.5306C236.322 30.5306 236.036 30.4198 235.798 30.1982C235.563 29.9723 235.446 29.7038 235.446 29.3928C235.446 29.0774 235.563 28.809 235.798 28.5874C236.036 28.3615 236.322 28.2486 236.654 28.2486C236.987 28.2486 237.27 28.3615 237.504 28.5874C237.743 28.809 237.862 29.0774 237.862 29.3928C237.862 29.7038 237.743 29.9723 237.504 30.1982C237.27 30.4198 236.987 30.5306 236.654 30.5306ZM244.307 42.0618C243.357 42.0618 242.539 41.8466 241.853 41.4162C241.171 40.9815 240.647 40.3828 240.28 39.62C239.914 38.8573 239.73 37.9837 239.73 36.9993C239.73 36.0021 239.918 35.1222 240.293 34.3594C240.668 33.5923 241.196 32.9936 241.878 32.5632C242.56 32.1328 243.363 31.9176 244.288 31.9176C245.034 31.9176 245.699 32.0561 246.282 32.3331C246.866 32.6058 247.337 32.9894 247.695 33.4837C248.057 33.978 248.272 34.5554 248.341 35.2159H246.48C246.378 34.7557 246.144 34.3594 245.777 34.027C245.415 33.6946 244.929 33.5284 244.32 33.5284C243.787 33.5284 243.321 33.669 242.92 33.9503C242.524 34.2273 242.215 34.6236 241.993 35.1392C241.772 35.6506 241.661 36.2557 241.661 36.9546C241.661 37.6705 241.77 38.2884 241.987 38.8082C242.204 39.3281 242.511 39.7308 242.907 40.0163C243.308 40.3019 243.779 40.4446 244.32 40.4446C244.682 40.4446 245.01 40.3786 245.304 40.2465C245.603 40.1101 245.852 39.9162 246.052 39.6648C246.257 39.4134 246.4 39.1108 246.48 38.7571H248.341C248.272 39.3921 248.066 39.9588 247.721 40.4574C247.375 40.956 246.913 41.348 246.333 41.6335C245.758 41.919 245.083 42.0618 244.307 42.0618ZM254.52 42.0618C253.6 42.0618 252.796 41.8509 252.11 41.429C251.424 41.0071 250.892 40.4169 250.512 39.6584C250.133 38.8999 249.943 38.0135 249.943 36.9993C249.943 35.9808 250.133 35.0902 250.512 34.3274C250.892 33.5646 251.424 32.9723 252.11 32.5504C252.796 32.1286 253.6 31.9176 254.52 31.9176C255.441 31.9176 256.244 32.1286 256.93 32.5504C257.616 32.9723 258.149 33.5646 258.528 34.3274C258.907 35.0902 259.097 35.9808 259.097 36.9993C259.097 38.0135 258.907 38.8999 258.528 39.6584C258.149 40.4169 257.616 41.0071 256.93 41.429C256.244 41.8509 255.441 42.0618 254.52 42.0618ZM254.526 40.4574C255.123 40.4574 255.617 40.2997 256.009 39.9844C256.401 39.669 256.691 39.2493 256.879 38.7252C257.07 38.201 257.166 37.6236 257.166 36.9929C257.166 36.3665 257.07 35.7912 256.879 35.2671C256.691 34.7386 256.401 34.3146 256.009 33.995C255.617 33.6754 255.123 33.5156 254.526 33.5156C253.926 33.5156 253.427 33.6754 253.031 33.995C252.639 34.3146 252.347 34.7386 252.155 35.2671C251.968 35.7912 251.874 36.3665 251.874 36.9929C251.874 37.6236 251.968 38.201 252.155 38.7252C252.347 39.2493 252.639 39.669 253.031 39.9844C253.427 40.2997 253.926 40.4574 254.526 40.4574Z" fill="#2C2B2B"></path><defs><linearGradient id="paint0_linear_3588_10371" x1="0.0320575" y1="16.6059" x2="29.2941" y2="45.868" gradientUnits="userSpaceOnUse"><stop offset="0.55" stop-color="#E40521"></stop><stop offset="0.71" stop-color="#CE0F21"></stop><stop offset="1" stop-color="#9C2724"></stop></linearGradient><linearGradient id="paint1_linear_3588_10371" x1="9.69727" y1="47.7658" x2="59.2581" y2="47.7658" gradientUnits="userSpaceOnUse"><stop offset="0.55" stop-color="#E40521"></stop><stop offset="0.95" stop-color="#9C2724"></stop></linearGradient><linearGradient id="paint2_linear_3588_10371" x1="24.197" y1="26.3867" x2="63.6084" y2="26.3867" gradientUnits="userSpaceOnUse"><stop stop-color="#9C2724"></stop><stop offset="0.11" stop-color="#A72123"></stop><stop offset="0.29" stop-color="#C51322"></stop><stop offset="0.45" stop-color="#E40521"></stop></linearGradient><clipPath id="clip0_3588_10371"><rect width="150" height="63.6116" fill="white" transform="translate(0 0.0578613)"></rect></clipPath></defs></svg>